<?xml version="1.0" encoding="utf-8"?>
<!-- Generator: Adobe Illustrator 21.0.0, SVG Export Plug-In . SVG Version: 6.00 Build 0)  -->
<svg version="1.1" id="Layer_1" xmlns="http://www.w3.org/2000/svg" xmlns:xlink="http://www.w3.org/1999/xlink" x="0px" y="0px"
	 viewBox="0 0 32 32" enable-background="new 0 0 32 32" xml:space="preserve">
<g>
	<path fill="#3999C6" d="M0,4.4v23.3C0,30,5.4,32,12.1,32V4.4L0,4.4z"/>
	<path opacity="0.85" fill="#3999C6" d="M11.9,32h0.2c6.7,0,12.1-2,12.1-4.4V4.4H11.9V32z"/>
	<path fill="#FFFFFF" d="M24.1,4.4c0,2.4-5.4,4.4-12.1,4.4S0,6.8,0,4.4S5.4,0,12.1,0S24.1,2,24.1,4.4"/>
	<path fill="#7FBA00" d="M21.7,4.1c0,1.6-4.3,2.9-9.6,2.9S2.5,5.7,2.5,4.1c0-1.6,4.3-2.9,9.6-2.9S21.7,2.5,21.7,4.1"/>
	<path fill="#B8D432" d="M19.7,5.9c1.3-0.5,2-1.1,2-1.8c0-1.6-4.3-2.9-9.6-2.9c-5.3,0-9.6,1.3-9.6,2.9c0,0.7,0.8,1.3,2,1.8
		C6.2,5.2,9,4.8,12.1,4.8C15.2,4.8,17.9,5.2,19.7,5.9"/>
</g>
<g>
	<polygon fill="#3999C6" points="31.4,19.8 29.9,18.4 29.3,17.8 29.2,17.8 18.5,17.8 18.5,32 32,32 32,20.5 32,20.5 	"/>
	<polygon fill="#FFFFFF" enable-background="new    " points="29,18.5 19.3,18.5 19.3,31.3 31.3,31.3 31.3,20.8 29,20.8 	"/>
	<path fill="#3999C6" d="M21.1,27.9c0-0.2,0.1-0.3,0.3-0.3h4.6c0.2,0,0.3,0.1,0.3,0.3s-0.2,0.3-0.3,0.3h-4.6
		C21.3,28.3,21.1,28.1,21.1,27.9"/>
	<path fill="#3999C6" d="M21.1,25.6c0-0.2,0.1-0.3,0.3-0.3h7.7c0.2,0,0.3,0.1,0.3,0.3c0,0.2-0.1,0.3-0.3,0.3h-7.7
		C21.3,25.9,21.1,25.8,21.1,25.6"/>
	<path fill="#3999C6" d="M21.1,23.4c0-0.2,0.1-0.3,0.3-0.3h7.7c0.2,0,0.3,0.1,0.3,0.3s-0.1,0.3-0.3,0.3h-7.7
		C21.3,23.8,21.1,23.6,21.1,23.4"/>
	<rect x="14.8" y="13.3" fill="#3999C6" width="10.9" height="2.3"/>
	<rect x="14" y="13.3" fill="#3999C6" width="2.3" height="15"/>
	<polygon fill="#FFFFFF" enable-background="new    " points="15.5,14 14.8,14 14.8,27.5 16.3,27.5 16.3,15.5 24.9,15.5 24.9,14 	
		"/>
	<rect x="17" y="15.5" fill="#3999C6" width="10.9" height="2.3"/>
	<rect x="16.3" y="15.5" fill="#3999C6" width="2.3" height="14.3"/>
	<polygon fill="#FFFFFF" enable-background="new    " points="17.8,16.3 17,16.3 17,29 18.5,29 18.5,17.8 27.1,17.8 27.1,16.3 	"/>
</g>
</svg>
