<?xml version="1.0" encoding="utf-8"?>
<!-- Generator: Adobe Illustrator 18.1.0, SVG Export Plug-In . SVG Version: 6.00 Build 0)  -->
<!DOCTYPE svg PUBLIC "-//W3C//DTD SVG 1.1//EN" "http://www.w3.org/Graphics/SVG/1.1/DTD/svg11.dtd">
<svg version="1.1" id="Layer_1" xmlns="http://www.w3.org/2000/svg" xmlns:xlink="http://www.w3.org/1999/xlink" x="0px" y="0px"
	 width="50px" height="50px" viewBox="-358 488 50 50" enable-background="new -358 488 50 50" xml:space="preserve">
<g>
	<polygon fill="#B8D432" points="-317.4,488 -340,488 -340,523.3 -311.3,523.3 -311.3,494.1 -317.4,494.1 	"/>
	<polygon opacity="0.5" fill="#B8D432" points="-317.4,488 -311.3,494.1 -317.4,494.1 	"/>
	<polygon opacity="0.15" fill="#1A1A1A" points="-317.4,494.1 -311.3,503.7 -311.3,494.1 	"/>
	<path opacity="0.7" fill="#FFFFFF" d="M-323.5,509.1h5c0-3.9-3.2-7.1-7.1-7.1v5C-324.5,507-323.5,508-323.5,509.1z"/>
	<path fill="#FFFFFF" d="M-325.6,511.3c-1.2,0-2.1-0.9-2.1-2.1c0-1.2,0.9-2.1,2.1-2.1v-5c-3.9,0-7.1,3.2-7.1,7.1
		c0,3.9,3.2,7.1,7.1,7.1c2,0,3.7-0.8,5-2.1l-3.5-3.5C-324.5,511-325.1,511.3-325.6,511.3z"/>
	<polygon fill="#FFFFFF" points="-320.6,514.2 -320.6,514.2 -320.6,514.2 	"/>
	<path opacity="0.5" fill="#FFFFFF" d="M-318.5,509.1h-5c0,0.6-0.2,1.1-0.6,1.5l3.5,3.5l0,0v0h0
		C-319.3,512.9-318.5,511.1-318.5,509.1z"/>
</g>
<g>
	<polygon fill="#59B4D9" points="-332.1,502.7 -354.7,502.7 -354.7,538 -326,538 -326,508.8 -332.1,508.8 	"/>
	<polygon fill="#AAD8EA" points="-332.1,502.7 -326,508.8 -332.1,508.8 	"/>
	<polygon opacity="0.15" fill="#1A1A1A" points="-332.1,508.8 -326,518.4 -326,508.8 	"/>
	<rect x="-336" y="525" fill="#FFFFFF" width="3" height="7"/>
	<rect x="-340" y="527" fill="#FFFFFF" width="3" height="5"/>
	<rect x="-344" y="519" fill="#FFFFFF" width="3" height="13"/>
	<rect x="-348" y="524" fill="#FFFFFF" width="3" height="8"/>
</g>
</svg>
