<?xml version="1.0" encoding="utf-8"?>
<!-- Generator: Adobe Illustrator 18.1.0, SVG Export Plug-In . SVG Version: 6.00 Build 0)  -->
<!DOCTYPE svg PUBLIC "-//W3C//DTD SVG 1.1//EN" "http://www.w3.org/Graphics/SVG/1.1/DTD/svg11.dtd">
<svg version="1.1" id="Layer_1" xmlns="http://www.w3.org/2000/svg" xmlns:xlink="http://www.w3.org/1999/xlink" x="0px" y="0px"
	 viewBox="96 243.8 568.8 536.5" enable-background="new 96 243.8 568.8 536.5" xml:space="preserve">
<g>
	<path fill="#59B4D9" d="M366.8,318.3H142.1h-36.7v210.9c0,3.3,1.3,6.6,3.6,9.1l-0.1,0.1c0.3,0.3,0.7,0.7,1.1,0.9
		c2.4,2.2,5.5,3.6,9.2,3.6h271.7c6.9,0,13.8-5.7,13.8-13.8V318.3H366.8z"/>
	<g>
		<rect x="162.8" y="365.3" fill="#FFFFFF" width="186.8" height="17.2"/>
		<rect x="162.8" y="421.4" fill="#FFFFFF" width="186.8" height="17.2"/>
		<rect x="162.8" y="477.6" fill="#FFFFFF" width="186.8" height="17.2"/>
	</g>
	<path fill="#7FBA00" d="M541,467.3c0,0,13.8-102-80.2-121.5c0,0-8-1.1-18.3-1.1c-11.5,0-16,3.4-16,3.4v41.3c0,0,3.4-3.4,18.3-3.4
		c9.2,0,16,1.1,19.5,1.1c21.8,6.9,42.4,22.9,37.8,79.1h-40.1l63,77.9l61.9-77.9H541V467.3z"/>
	<path fill="#59B4D9" d="M621.3,598h-8v37.8v92.8H498.6h-16V739c0,4.6,1.1,8,5.7,8h135.3c4.6,0,8-3.4,8-8V606
		C631.6,601.4,625.9,598,621.3,598z"/>
	<path fill="#59B4D9" d="M654.5,631.2h-8V669v91.7c0,1.1-1.1,1.1-1.1,1.1H533h-17.2v10.3c0,4.6,1.1,8,5.7,8h133
		c5.7,0,10.3-4.6,10.3-10.3V639.2C664.8,634.7,659.1,631.2,654.5,631.2z"/>
	<path fill="#3999C6" d="M143.3,318.3h223.5h37.8v-60.8c0-6.9-5.7-13.8-13.8-13.8H119.2c-6.9,0-13.8,5.7-13.8,13.8v60.8H143.3z"/>
	<path fill="#3999C6" d="M585.7,561.3h-133c-4.6,0-8,3.4-8,8v29.8h18.3h112.3h18.3v-29.8C593.8,564.7,590.3,561.3,585.7,561.3z"/>
	<path fill="#59B4D9" d="M575.4,598H463.1h-1.1h-17.2v104.3c0,4.6,3.4,8,8,8c0,0,0,0,0,0h0h133h0c4.6,0,8-3.4,8-8V598H575.4z"/>
	<g>
		<rect x="479.1" y="616.3" fill="#FFFFFF" width="74.5" height="18.3"/>
	</g>
	<path opacity="0.2" fill="#FFFFFF" d="M367,318.3H142.3h-36.7v210.9c0,3.4,1.4,6.9,3.9,9.5c2.4,2.6,295.3-220.4,295.3-220.4H367z"
		/>
	<path opacity="0.2" fill="#FFFFFF" d="M593.8,598h-149v103.7c0,0-0.4,3.6,1.9,5.9L593.8,598z"/>
</g>
</svg>
